<?xml version="1.0" encoding="UTF-8" standalone="no"?>
<svg width="361.244mm" height="181.681mm"
 viewBox="0 0 1024 515"
 xmlns="http://www.w3.org/2000/svg" xmlns:xlink="http://www.w3.org/1999/xlink"  version="1.2" baseProfile="tiny">
<title>Qt SVG Document</title>
<desc>Generated with Qt</desc>
<defs>
</defs>
<g fill="none" stroke="black" stroke-width="1" fill-rule="evenodd" stroke-linecap="square" stroke-linejoin="bevel" >

<g fill="#ffffff" fill-opacity="1" stroke="none" transform="matrix(1,0,0,1,0,0)"
font-family="DejaVu Sans" font-size="12" font-weight="400" font-style="normal" 
>
<rect x="0" y="0" width="1024" height="515"/>
</g>

<g fill="#000000" fill-opacity="1" stroke="#000000" stroke-opacity="1" stroke-width="1" stroke-linecap="butt" stroke-linejoin="miter" stroke-miterlimit="2" transform="matrix(1,0,0,1,0,0)"
font-family="DejaVu Sans" font-size="12" font-weight="400" font-style="normal" 
>
</g>

<g fill="#000000" fill-opacity="1" stroke="#000000" stroke-opacity="1" stroke-width="1" stroke-linecap="butt" stroke-linejoin="miter" stroke-miterlimit="2" transform="matrix(1,0,0,1,0,0)"
font-family="DejaVu Sans" font-size="12" font-weight="400" font-style="normal" 
>
</g>

<g fill="#000000" fill-opacity="1" stroke="#000000" stroke-opacity="1" stroke-width="1" stroke-linecap="butt" stroke-linejoin="miter" stroke-miterlimit="2" transform="matrix(1,0,0,1,0,0)"
font-family="DejaVu Sans" font-size="12" font-weight="400" font-style="normal" 
>
</g>

<g fill="#ffffff" fill-opacity="1" stroke="none" transform="matrix(1,0,0,1,0,0)"
font-family="DejaVu Sans" font-size="12" font-weight="400" font-style="normal" 
>
<rect x="0" y="0" width="1024" height="515"/>
</g>

<g fill="#08140b" fill-opacity="1" stroke="none" transform="matrix(1,0,0,1,0,0)"
font-family="DejaVu Sans" font-size="12" font-weight="400" font-style="normal" 
>
<rect x="0" y="0" width="1024" height="515"/>
</g>

<g fill="#00ff73" fill-opacity="1" stroke="#00ff73" stroke-opacity="1" stroke-width="1" stroke-linecap="square" stroke-linejoin="bevel" transform="matrix(1,0,0,1,0,0)"
font-family="DejaVu Sans" font-size="12" font-weight="400" font-style="normal" 
>
</g>

<g fill="#00ff73" fill-opacity="1" stroke="none" transform="matrix(1,0,0,1,0,0)"
font-family="DejaVu Sans" font-size="12" font-weight="400" font-style="normal" 
>
<path vector-effect="none" fill-rule="nonzero" d="M207.969,217.5 L164.469,232.516 L207.969,247.453 L207.969,258.063 L151,237.453 L151,227.406 L207.969,206.828 L207.969,217.5 M248.547,261 L248.547,255.625 L253.969,255.625 L278.953,194.656 L289.563,194.656 L314.578,255.625 L320.891,255.625 L320.891,261 L289.828,261 L289.828,255.625 L296.328,255.625 L290.859,242.078 L265.922,242.078 L260.375,255.625 L268.281,255.625 L268.281,261 L248.547,261 M268.109,236.688 L288.672,236.688 L278.453,211.328 L268.109,236.688 M324.125,261 L324.125,255.625 L332.609,255.625 L332.609,200.031 L324.125,200.031 L324.125,194.656 L358.25,194.656 L358.25,200.031 L349.719,200.031 L349.719,254.906 L375.844,254.906 L375.844,244.422 L381.844,244.422 L381.844,261 L324.125,261 M388.109,261 L388.109,255.625 L396.594,255.625 L396.594,200.031 L388.109,200.031 L388.109,194.656 L447.734,194.656 L447.734,210.297 L441.609,210.297 L441.609,200.75 L413.703,200.75 L413.703,222.031 L431.078,222.031 L431.078,213.594 L437.172,213.594 L437.172,236.516 L431.078,236.516 L431.078,228.078 L413.703,228.078 L413.703,254.906 L442.453,254.906 L442.453,245.359 L448.547,245.359 L448.547,261 L388.109,261 M460.219,257.797 L460.219,242.078 L465.859,242.078 C466.724,247.047 468.755,250.76 471.953,253.219 C475.151,255.677 479.578,256.906 485.234,256.906 C489.828,256.906 493.326,256.034 495.727,254.289 C498.128,252.544 499.328,249.984 499.328,246.609 C499.328,243.943 498.513,241.867 496.883,240.383 C495.253,238.898 491.891,237.521 486.797,236.25 L476.844,233.813 C470.354,232.146 465.792,229.839 463.156,226.891 C460.521,223.943 459.203,219.745 459.203,214.297 C459.203,207.724 461.388,202.607 465.758,198.945 C470.128,195.284 476.25,193.453 484.125,193.453 C488.01,193.453 492.049,193.781 496.242,194.438 C500.435,195.094 504.781,196.073 509.281,197.375 L509.281,212.031 L503.641,212.031 C502.776,207.469 500.893,204.13 497.992,202.016 C495.091,199.901 490.958,198.844 485.594,198.844 C481.208,198.844 477.898,199.604 475.664,201.125 C473.43,202.646 472.313,204.922 472.313,207.953 C472.313,210.703 473.083,212.797 474.625,214.234 C476.167,215.672 479.943,217.161 485.953,218.703 L495.906,221.141 C502.063,222.682 506.526,225.083 509.297,228.344 C512.068,231.604 513.453,236.089 513.453,241.797 C513.453,248.495 511.143,253.583 506.523,257.063 C501.904,260.542 495.104,262.281 486.125,262.281 C481.802,262.281 477.508,261.911 473.242,261.172 C468.977,260.432 464.635,259.307 460.219,257.797 M535.391,261 L535.391,255.625 L544.188,255.625 L544.188,200.75 L526.016,200.75 L526.016,211.234 L519.922,211.234 L519.922,194.656 L585.688,194.656 L585.688,211.234 L579.688,211.234 L579.688,200.75 L561.391,200.75 L561.391,255.625 L570.234,255.625 L570.234,261 L535.391,261 M626.203,256.906 C631.859,256.906 636.065,254.523 638.82,249.758 C641.576,244.992 642.953,237.703 642.953,227.891 C642.953,218.057 641.576,210.758 638.82,205.992 C636.065,201.227 631.859,198.844 626.203,198.844 C620.568,198.844 616.367,201.25 613.602,206.063 C610.836,210.875 609.453,218.151 609.453,227.891 C609.453,237.609 610.836,244.875 613.602,249.688 C616.367,254.5 620.568,256.906 626.203,256.906 M626.203,262.281 C615.036,262.281 606.284,259.232 599.945,253.133 C593.607,247.034 590.438,238.62 590.438,227.891 C590.438,217.172 593.615,208.753 599.969,202.633 C606.323,196.513 615.068,193.453 626.203,193.453 C637.37,193.453 646.122,196.505 652.461,202.609 C658.799,208.714 661.969,217.141 661.969,227.891 C661.969,238.62 658.792,247.034 652.438,253.133 C646.083,259.232 637.339,262.281 626.203,262.281 M714.172,228.609 C716.807,228.995 719.029,229.867 720.836,231.227 C722.643,232.586 724.214,234.557 725.547,237.141 L735.234,255.625 L742.031,255.625 L742.031,261 L720.219,261 L709.641,240.953 C707.599,236.807 705.859,234.164 704.422,233.023 C702.984,231.883 700.99,231.313 698.438,231.313 L695.734,231.313 L695.734,255.625 L704.266,255.625 L704.266,261 L670.141,261 L670.141,255.625 L678.625,255.625 L678.625,200.031 L670.141,200.031 L670.141,194.656 L708,194.656 C715.698,194.656 721.643,196.206 725.836,199.305 C730.029,202.404 732.125,206.797 732.125,212.484 C732.125,217.099 730.635,220.747 727.656,223.43 C724.677,226.112 720.182,227.839 714.172,228.609 M695.734,225.984 L701.563,225.984 C705.708,225.984 708.898,224.859 711.133,222.609 C713.367,220.359 714.484,217.146 714.484,212.969 C714.484,208.792 713.367,205.591 711.133,203.367 C708.898,201.143 705.708,200.031 701.563,200.031 L695.734,200.031 L695.734,225.984 M796.547,194.656 L806.406,194.656 L782.984,269.438 L773.172,269.438 L796.547,194.656 M816.047,217.5 L816.047,206.828 L873.016,227.406 L873.016,237.453 L816.047,258.063 L816.047,247.453 L859.547,232.516 L816.047,217.5"/>
</g>

<g fill="#00ff73" fill-opacity="1" stroke="#00ff73" stroke-opacity="1" stroke-width="1" stroke-linecap="square" stroke-linejoin="bevel" transform="matrix(1,0,0,1,0,0)"
font-family="DejaVu Sans" font-size="12" font-weight="400" font-style="normal" 
>
<text fill="#00ff73" fill-opacity="1" stroke="none" xml:space="preserve" x="0" y="0" font-family="DejaVu Sans" font-size="12" font-weight="400" font-style="normal" 
 ></text>
</g>

<g fill="#00ff73" fill-opacity="1" stroke="#00ff73" stroke-opacity="1" stroke-width="1" stroke-linecap="square" stroke-linejoin="bevel" transform="matrix(1,0,0,1,0,0)"
font-family="DejaVu Sans" font-size="12" font-weight="400" font-style="normal" 
>
</g>

<g fill="#00ff73" fill-opacity="1" stroke="none" transform="matrix(1,0,0,1,0,0)"
font-family="DejaVu Sans" font-size="12" font-weight="400" font-style="normal" 
>
<path vector-effect="none" fill-rule="nonzero" d="M155.578,356.609 L142.188,361.234 L155.578,365.828 L155.578,369.094 L138.047,362.75 L138.047,359.656 L155.578,353.328 L155.578,356.609 M168.047,370 L168.047,368.344 L169.719,368.344 L177.406,349.594 L180.672,349.594 L188.359,368.344 L190.313,368.344 L190.313,370 L180.75,370 L180.75,368.344 L182.75,368.344 L181.063,364.172 L173.391,364.172 L171.688,368.344 L174.125,368.344 L174.125,370 L168.047,370 M174.063,362.516 L180.391,362.516 L177.25,354.719 L174.063,362.516 M200.891,370 L200.891,368.344 L203.5,368.344 L203.5,351.234 L200.891,351.234 L200.891,349.594 L209.313,349.594 L215.141,362.688 L221,349.594 L229.406,349.594 L229.406,351.234 L226.797,351.234 L226.797,368.344 L229.406,368.344 L229.406,370 L218.906,370 L218.906,368.344 L221.5,368.344 L221.5,352.766 L215.172,367 L211.703,367 L205.406,352.766 L205.406,368.344 L208,368.344 L208,370 L200.891,370 M240.063,368.844 C241.083,368.844 241.799,368.406 242.211,367.531 C242.622,366.656 242.828,365.052 242.828,362.719 C242.828,360.385 242.622,358.784 242.211,357.914 C241.799,357.044 241.083,356.609 240.063,356.609 C239.031,356.609 238.305,357.049 237.883,357.93 C237.461,358.81 237.25,360.406 237.25,362.719 C237.25,365.042 237.461,366.643 237.883,367.523 C238.305,368.404 239.031,368.844 240.063,368.844 M240.063,370.391 C237.5,370.391 235.492,369.711 234.039,368.352 C232.586,366.992 231.859,365.115 231.859,362.719 C231.859,360.323 232.586,358.448 234.039,357.094 C235.492,355.74 237.5,355.063 240.063,355.063 C242.625,355.063 244.633,355.74 246.086,357.094 C247.539,358.448 248.266,360.323 248.266,362.719 C248.266,365.115 247.536,366.992 246.078,368.352 C244.62,369.711 242.615,370.391 240.063,370.391 M264.422,355.297 L264.422,359.641 L262.875,359.641 C262.813,358.859 262.599,358.281 262.234,357.906 C261.87,357.531 261.344,357.344 260.656,357.344 C259.594,357.344 258.758,357.807 258.148,358.734 C257.539,359.661 257.234,360.953 257.234,362.609 L257.234,368.344 L259.875,368.344 L259.875,370 L250.328,370 L250.328,368.344 L252.391,368.344 L252.391,357.125 L250.188,357.125 L250.188,355.469 L257.234,355.469 L257.234,358.047 C257.714,357.036 258.341,356.286 259.117,355.797 C259.893,355.307 260.849,355.063 261.984,355.063 C262.266,355.063 262.609,355.083 263.016,355.125 C263.422,355.167 263.891,355.224 264.422,355.297 M266.906,357.125 L264.797,357.125 L264.797,355.469 L266.906,355.469 L266.906,350.953 L271.734,350.953 L271.734,355.469 L275.781,355.469 L275.781,357.125 L271.734,357.125 L271.734,366.016 C271.734,367.286 271.836,368.076 272.039,368.383 C272.242,368.69 272.609,368.844 273.141,368.844 C273.724,368.844 274.156,368.648 274.438,368.258 C274.719,367.867 274.87,367.26 274.891,366.438 L276.922,366.438 C276.839,367.896 276.44,368.919 275.727,369.508 C275.013,370.096 273.781,370.391 272.031,370.391 C270.031,370.391 268.677,370.078 267.969,369.453 C267.26,368.828 266.906,367.682 266.906,366.016 L266.906,357.125 M292.469,361.078 L292.469,368.344 L294.547,368.344 L294.547,370 L287.625,370 L287.625,368.156 C286.99,368.917 286.281,369.479 285.5,369.844 C284.719,370.208 283.823,370.391 282.813,370.391 C281.333,370.391 280.195,369.992 279.398,369.195 C278.602,368.398 278.203,367.26 278.203,365.781 C278.203,364.146 278.773,362.922 279.914,362.109 C281.055,361.297 282.781,360.891 285.094,360.891 L287.625,360.891 L287.625,360.031 C287.625,358.854 287.349,357.987 286.797,357.43 C286.245,356.872 285.385,356.594 284.219,356.594 C283.25,356.594 282.503,356.792 281.977,357.188 C281.451,357.583 281.078,358.229 280.859,359.125 L279.313,359.125 L279.313,356 C280.177,355.688 281.076,355.453 282.008,355.297 C282.94,355.141 283.922,355.063 284.953,355.063 C287.547,355.063 289.448,355.547 290.656,356.516 C291.865,357.484 292.469,359.005 292.469,361.078 M287.625,365.438 L287.625,362.516 L285.813,362.516 C284.906,362.516 284.214,362.763 283.734,363.258 C283.255,363.753 283.016,364.458 283.016,365.375 C283.016,366.302 283.19,366.992 283.539,367.445 C283.888,367.898 284.422,368.125 285.141,368.125 C285.891,368.125 286.492,367.88 286.945,367.391 C287.398,366.901 287.625,366.25 287.625,365.438 M303.047,368.344 L305.125,368.344 L305.125,370 L296.141,370 L296.141,368.344 L298.203,368.344 L298.203,350.359 L296.141,350.359 L296.141,348.719 L303.047,348.719 L303.047,368.344 M324.734,368.344 L326.641,368.344 C328.766,368.344 330.323,367.661 331.313,366.297 C332.302,364.932 332.797,362.755 332.797,359.766 C332.797,356.807 332.305,354.646 331.32,353.281 C330.336,351.917 328.776,351.234 326.641,351.234 L324.734,351.234 L324.734,368.344 M316.859,370 L316.859,368.344 L319.469,368.344 L319.469,351.234 L316.859,351.234 L316.859,349.594 L327.328,349.594 C330.995,349.594 333.799,350.469 335.742,352.219 C337.685,353.969 338.656,356.484 338.656,359.766 C338.656,363.078 337.682,365.612 335.734,367.367 C333.786,369.122 330.984,370 327.328,370 L316.859,370 M351.047,361.797 C351.047,359.88 350.87,358.536 350.516,357.766 C350.161,356.995 349.557,356.609 348.703,356.609 C347.87,356.609 347.273,356.99 346.914,357.75 C346.555,358.51 346.375,359.776 346.375,361.547 L346.375,361.797 L351.047,361.797 M356.375,363.422 L346.375,363.422 L346.375,363.531 C346.375,365.406 346.659,366.76 347.227,367.594 C347.794,368.427 348.703,368.844 349.953,368.844 C351.005,368.844 351.854,368.568 352.5,368.016 C353.146,367.464 353.563,366.656 353.75,365.594 L356.016,365.594 C355.62,367.25 354.839,368.464 353.672,369.234 C352.505,370.005 350.875,370.391 348.781,370.391 C346.271,370.391 344.344,369.729 343,368.406 C341.656,367.083 340.984,365.188 340.984,362.719 C340.984,360.313 341.672,358.435 343.047,357.086 C344.422,355.737 346.333,355.063 348.781,355.063 C351.188,355.063 353.034,355.773 354.32,357.195 C355.607,358.617 356.292,360.693 356.375,363.422 M363.891,370 L358.734,357.125 L357.141,357.125 L357.141,355.469 L365.469,355.469 L365.469,357.125 L363.719,357.125 L367.391,366.313 L371.047,357.125 L369.156,357.125 L369.156,355.469 L374.609,355.469 L374.609,357.125 L372.922,357.125 L367.766,370 L363.891,370 M385.125,361.797 C385.125,359.88 384.948,358.536 384.594,357.766 C384.24,356.995 383.635,356.609 382.781,356.609 C381.948,356.609 381.352,356.99 380.992,357.75 C380.633,358.51 380.453,359.776 380.453,361.547 L380.453,361.797 L385.125,361.797 M390.453,363.422 L380.453,363.422 L380.453,363.531 C380.453,365.406 380.737,366.76 381.305,367.594 C381.872,368.427 382.781,368.844 384.031,368.844 C385.083,368.844 385.932,368.568 386.578,368.016 C387.224,367.464 387.641,366.656 387.828,365.594 L390.094,365.594 C389.698,367.25 388.917,368.464 387.75,369.234 C386.583,370.005 384.953,370.391 382.859,370.391 C380.349,370.391 378.422,369.729 377.078,368.406 C375.734,367.083 375.063,365.188 375.063,362.719 C375.063,360.313 375.75,358.435 377.125,357.086 C378.5,355.737 380.411,355.063 382.859,355.063 C385.266,355.063 387.112,355.773 388.398,357.195 C389.685,358.617 390.37,360.693 390.453,363.422 M399.578,368.344 L401.656,368.344 L401.656,370 L392.672,370 L392.672,368.344 L394.734,368.344 L394.734,350.359 L392.672,350.359 L392.672,348.719 L399.578,348.719 L399.578,368.344 M411.703,368.844 C412.724,368.844 413.44,368.406 413.852,367.531 C414.263,366.656 414.469,365.052 414.469,362.719 C414.469,360.385 414.263,358.784 413.852,357.914 C413.44,357.044 412.724,356.609 411.703,356.609 C410.672,356.609 409.945,357.049 409.523,357.93 C409.102,358.81 408.891,360.406 408.891,362.719 C408.891,365.042 409.102,366.643 409.523,367.523 C409.945,368.404 410.672,368.844 411.703,368.844 M411.703,370.391 C409.141,370.391 407.133,369.711 405.68,368.352 C404.227,366.992 403.5,365.115 403.5,362.719 C403.5,360.323 404.227,358.448 405.68,357.094 C407.133,355.74 409.141,355.063 411.703,355.063 C414.266,355.063 416.273,355.74 417.727,357.094 C419.18,358.448 419.906,360.323 419.906,362.719 C419.906,365.115 419.177,366.992 417.719,368.352 C416.26,369.711 414.255,370.391 411.703,370.391 M428.578,362.016 L428.578,363.453 C428.578,365.151 428.794,366.378 429.227,367.133 C429.659,367.888 430.359,368.266 431.328,368.266 C432.318,368.266 433.016,367.865 433.422,367.063 C433.828,366.26 434.031,364.813 434.031,362.719 C434.031,360.635 433.828,359.195 433.422,358.398 C433.016,357.602 432.318,357.203 431.328,357.203 C430.359,357.203 429.659,357.581 429.227,358.336 C428.794,359.091 428.578,360.318 428.578,362.016 M423.734,357.125 L421.656,357.125 L421.656,355.469 L428.578,355.469 L428.578,357.313 C428.984,356.552 429.534,355.987 430.227,355.617 C430.919,355.247 431.776,355.063 432.797,355.063 C434.87,355.063 436.5,355.745 437.688,357.109 C438.875,358.474 439.469,360.344 439.469,362.719 C439.469,365.104 438.875,366.979 437.688,368.344 C436.5,369.708 434.87,370.391 432.797,370.391 C431.776,370.391 430.919,370.206 430.227,369.836 C429.534,369.466 428.984,368.906 428.578,368.156 L428.578,374.172 L430.813,374.172 L430.813,375.828 L421.656,375.828 L421.656,374.172 L423.734,374.172 L423.734,357.125 M451.813,361.797 C451.813,359.88 451.635,358.536 451.281,357.766 C450.927,356.995 450.323,356.609 449.469,356.609 C448.635,356.609 448.039,356.99 447.68,357.75 C447.32,358.51 447.141,359.776 447.141,361.547 L447.141,361.797 L451.813,361.797 M457.141,363.422 L447.141,363.422 L447.141,363.531 C447.141,365.406 447.424,366.76 447.992,367.594 C448.56,368.427 449.469,368.844 450.719,368.844 C451.771,368.844 452.62,368.568 453.266,368.016 C453.911,367.464 454.328,366.656 454.516,365.594 L456.781,365.594 C456.385,367.25 455.604,368.464 454.438,369.234 C453.271,370.005 451.641,370.391 449.547,370.391 C447.036,370.391 445.109,369.729 443.766,368.406 C442.422,367.083 441.75,365.188 441.75,362.719 C441.75,360.313 442.438,358.435 443.813,357.086 C445.188,355.737 447.099,355.063 449.547,355.063 C451.953,355.063 453.799,355.773 455.086,357.195 C456.372,358.617 457.057,360.693 457.141,363.422 M473.453,355.297 L473.453,359.641 L471.906,359.641 C471.844,358.859 471.63,358.281 471.266,357.906 C470.901,357.531 470.375,357.344 469.688,357.344 C468.625,357.344 467.789,357.807 467.18,358.734 C466.57,359.661 466.266,360.953 466.266,362.609 L466.266,368.344 L468.906,368.344 L468.906,370 L459.359,370 L459.359,368.344 L461.422,368.344 L461.422,357.125 L459.219,357.125 L459.219,355.469 L466.266,355.469 L466.266,358.047 C466.745,357.036 467.372,356.286 468.148,355.797 C468.924,355.307 469.88,355.063 471.016,355.063 C471.297,355.063 471.641,355.083 472.047,355.125 C472.453,355.167 472.922,355.224 473.453,355.297 M506.75,370 L503.219,370 L498.594,355.141 L493.984,370 L490.453,370 L484.625,351.234 L482.641,351.234 L482.641,349.594 L492.328,349.594 L492.328,351.234 L490.141,351.234 L494.031,363.781 L498.438,349.594 L502.313,349.594 L506.797,364.016 L510.781,351.234 L508.344,351.234 L508.344,349.594 L514.672,349.594 L514.672,351.234 L512.578,351.234 L506.75,370 M516.906,351.344 C516.906,350.615 517.161,349.995 517.672,349.484 C518.182,348.974 518.802,348.719 519.531,348.719 C520.26,348.719 520.878,348.974 521.383,349.484 C521.888,349.995 522.141,350.615 522.141,351.344 C522.141,352.073 521.888,352.69 521.383,353.195 C520.878,353.701 520.26,353.953 519.531,353.953 C518.802,353.953 518.182,353.701 517.672,353.195 C517.161,352.69 516.906,352.073 516.906,351.344 M522.188,368.344 L524.266,368.344 L524.266,370 L515.281,370 L515.281,368.344 L517.344,368.344 L517.344,357.125 L515.281,357.125 L515.281,355.469 L522.188,355.469 L522.188,368.344 M527.734,357.125 L525.625,357.125 L525.625,355.469 L527.734,355.469 L527.734,350.953 L532.563,350.953 L532.563,355.469 L536.609,355.469 L536.609,357.125 L532.563,357.125 L532.563,366.016 C532.563,367.286 532.664,368.076 532.867,368.383 C533.07,368.69 533.438,368.844 533.969,368.844 C534.552,368.844 534.984,368.648 535.266,368.258 C535.547,367.867 535.698,367.26 535.719,366.438 L537.75,366.438 C537.667,367.896 537.268,368.919 536.555,369.508 C535.841,370.096 534.609,370.391 532.859,370.391 C530.859,370.391 529.505,370.078 528.797,369.453 C528.089,368.828 527.734,367.682 527.734,366.016 L527.734,357.125 M538.828,370 L538.828,368.344 L540.891,368.344 L540.891,350.359 L538.734,350.359 L538.734,348.719 L545.734,348.719 L545.734,357.516 C546.318,356.651 546.984,356.026 547.734,355.641 C548.484,355.255 549.427,355.063 550.563,355.063 C552.198,355.063 553.432,355.544 554.266,356.508 C555.099,357.471 555.516,358.885 555.516,360.75 L555.516,368.344 L557.594,368.344 L557.594,370 L548.906,370 L548.906,368.344 L550.672,368.344 L550.672,360.625 C550.672,359.396 550.516,358.542 550.203,358.063 C549.891,357.583 549.344,357.344 548.563,357.344 C547.594,357.344 546.88,357.701 546.422,358.414 C545.964,359.128 545.734,360.266 545.734,361.828 L545.734,368.344 L547.516,368.344 L547.516,370 L538.828,370 M569.266,370 L569.266,368.344 L571.875,368.344 L571.875,351.234 L569.266,351.234 L569.266,349.594 L579.766,349.594 L579.766,351.234 L577.141,351.234 L577.141,368.344 L579.766,368.344 L579.766,370 L569.266,370 M598.047,357.844 C598.714,356.875 599.44,356.169 600.227,355.727 C601.013,355.284 601.932,355.063 602.984,355.063 C604.651,355.063 605.896,355.536 606.719,356.484 C607.542,357.432 607.953,358.854 607.953,360.75 L607.953,368.344 L610.031,368.344 L610.031,370 L601.375,370 L601.375,368.344 L603.109,368.344 L603.109,361.484 C603.109,359.672 602.971,358.529 602.695,358.055 C602.419,357.581 601.901,357.344 601.141,357.344 C600.286,357.344 599.622,357.674 599.148,358.336 C598.674,358.997 598.438,359.938 598.438,361.156 L598.438,368.344 L600.172,368.344 L600.172,370 L591.859,370 L591.859,368.344 L593.594,368.344 L593.594,361.484 C593.594,359.672 593.453,358.529 593.172,358.055 C592.891,357.581 592.375,357.344 591.625,357.344 C590.76,357.344 590.091,357.674 589.617,358.336 C589.143,358.997 588.906,359.938 588.906,361.156 L588.906,368.344 L590.641,368.344 L590.641,370 L582,370 L582,368.344 L584.063,368.344 L584.063,357.125 L582,357.125 L582,355.469 L588.906,355.469 L588.906,357.516 C589.469,356.672 590.115,356.052 590.844,355.656 C591.573,355.26 592.443,355.063 593.453,355.063 C594.63,355.063 595.589,355.289 596.328,355.742 C597.068,356.195 597.641,356.896 598.047,357.844 M627.672,357.844 C628.339,356.875 629.065,356.169 629.852,355.727 C630.638,355.284 631.557,355.063 632.609,355.063 C634.276,355.063 635.521,355.536 636.344,356.484 C637.167,357.432 637.578,358.854 637.578,360.75 L637.578,368.344 L639.656,368.344 L639.656,370 L631,370 L631,368.344 L632.734,368.344 L632.734,361.484 C632.734,359.672 632.596,358.529 632.32,358.055 C632.044,357.581 631.526,357.344 630.766,357.344 C629.911,357.344 629.247,357.674 628.773,358.336 C628.299,358.997 628.063,359.938 628.063,361.156 L628.063,368.344 L629.797,368.344 L629.797,370 L621.484,370 L621.484,368.344 L623.219,368.344 L623.219,361.484 C623.219,359.672 623.078,358.529 622.797,358.055 C622.516,357.581 622,357.344 621.25,357.344 C620.385,357.344 619.716,357.674 619.242,358.336 C618.768,358.997 618.531,359.938 618.531,361.156 L618.531,368.344 L620.266,368.344 L620.266,370 L611.625,370 L611.625,368.344 L613.688,368.344 L613.688,357.125 L611.625,357.125 L611.625,355.469 L618.531,355.469 L618.531,357.516 C619.094,356.672 619.74,356.052 620.469,355.656 C621.198,355.26 622.068,355.063 623.078,355.063 C624.255,355.063 625.214,355.289 625.953,355.742 C626.693,356.195 627.266,356.896 627.672,357.844 M649.656,368.844 C650.677,368.844 651.393,368.406 651.805,367.531 C652.216,366.656 652.422,365.052 652.422,362.719 C652.422,360.385 652.216,358.784 651.805,357.914 C651.393,357.044 650.677,356.609 649.656,356.609 C648.625,356.609 647.898,357.049 647.477,357.93 C647.055,358.81 646.844,360.406 646.844,362.719 C646.844,365.042 647.055,366.643 647.477,367.523 C647.898,368.404 648.625,368.844 649.656,368.844 M649.656,370.391 C647.094,370.391 645.086,369.711 643.633,368.352 C642.18,366.992 641.453,365.115 641.453,362.719 C641.453,360.323 642.18,358.448 643.633,357.094 C645.086,355.74 647.094,355.063 649.656,355.063 C652.219,355.063 654.227,355.74 655.68,357.094 C657.133,358.448 657.859,360.323 657.859,362.719 C657.859,365.115 657.13,366.992 655.672,368.352 C654.214,369.711 652.208,370.391 649.656,370.391 M674.016,355.297 L674.016,359.641 L672.469,359.641 C672.406,358.859 672.193,358.281 671.828,357.906 C671.464,357.531 670.938,357.344 670.25,357.344 C669.188,357.344 668.352,357.807 667.742,358.734 C667.133,359.661 666.828,360.953 666.828,362.609 L666.828,368.344 L669.469,368.344 L669.469,370 L659.922,370 L659.922,368.344 L661.984,368.344 L661.984,357.125 L659.781,357.125 L659.781,355.469 L666.828,355.469 L666.828,358.047 C667.307,357.036 667.935,356.286 668.711,355.797 C669.487,355.307 670.443,355.063 671.578,355.063 C671.859,355.063 672.203,355.083 672.609,355.125 C673.016,355.167 673.484,355.224 674.016,355.297 M676.5,357.125 L674.391,357.125 L674.391,355.469 L676.5,355.469 L676.5,350.953 L681.328,350.953 L681.328,355.469 L685.375,355.469 L685.375,357.125 L681.328,357.125 L681.328,366.016 C681.328,367.286 681.43,368.076 681.633,368.383 C681.836,368.69 682.203,368.844 682.734,368.844 C683.318,368.844 683.75,368.648 684.031,368.258 C684.313,367.867 684.464,367.26 684.484,366.438 L686.516,366.438 C686.432,367.896 686.034,368.919 685.32,369.508 C684.607,370.096 683.375,370.391 681.625,370.391 C679.625,370.391 678.271,370.078 677.563,369.453 C676.854,368.828 676.5,367.682 676.5,366.016 L676.5,357.125 M702.063,361.078 L702.063,368.344 L704.141,368.344 L704.141,370 L697.219,370 L697.219,368.156 C696.583,368.917 695.875,369.479 695.094,369.844 C694.313,370.208 693.417,370.391 692.406,370.391 C690.927,370.391 689.789,369.992 688.992,369.195 C688.195,368.398 687.797,367.26 687.797,365.781 C687.797,364.146 688.367,362.922 689.508,362.109 C690.648,361.297 692.375,360.891 694.688,360.891 L697.219,360.891 L697.219,360.031 C697.219,358.854 696.943,357.987 696.391,357.43 C695.839,356.872 694.979,356.594 693.813,356.594 C692.844,356.594 692.096,356.792 691.57,357.188 C691.044,357.583 690.672,358.229 690.453,359.125 L688.906,359.125 L688.906,356 C689.771,355.688 690.669,355.453 691.602,355.297 C692.534,355.141 693.516,355.063 694.547,355.063 C697.141,355.063 699.042,355.547 700.25,356.516 C701.458,357.484 702.063,359.005 702.063,361.078 M697.219,365.438 L697.219,362.516 L695.406,362.516 C694.5,362.516 693.807,362.763 693.328,363.258 C692.849,363.753 692.609,364.458 692.609,365.375 C692.609,366.302 692.784,366.992 693.133,367.445 C693.482,367.898 694.016,368.125 694.734,368.125 C695.484,368.125 696.086,367.88 696.539,367.391 C696.992,366.901 697.219,366.25 697.219,365.438 M712.641,368.344 L714.719,368.344 L714.719,370 L705.734,370 L705.734,368.344 L707.797,368.344 L707.797,350.359 L705.734,350.359 L705.734,348.719 L712.641,348.719 L712.641,368.344 M734.328,368.344 L736.234,368.344 C738.359,368.344 739.917,367.661 740.906,366.297 C741.896,364.932 742.391,362.755 742.391,359.766 C742.391,356.807 741.898,354.646 740.914,353.281 C739.93,351.917 738.37,351.234 736.234,351.234 L734.328,351.234 L734.328,368.344 M726.453,370 L726.453,368.344 L729.063,368.344 L729.063,351.234 L726.453,351.234 L726.453,349.594 L736.922,349.594 C740.589,349.594 743.393,350.469 745.336,352.219 C747.279,353.969 748.25,356.484 748.25,359.766 C748.25,363.078 747.276,365.612 745.328,367.367 C743.38,369.122 740.578,370 736.922,370 L726.453,370 M764.469,355.297 L764.469,359.641 L762.922,359.641 C762.859,358.859 762.646,358.281 762.281,357.906 C761.917,357.531 761.391,357.344 760.703,357.344 C759.641,357.344 758.805,357.807 758.195,358.734 C757.586,359.661 757.281,360.953 757.281,362.609 L757.281,368.344 L759.922,368.344 L759.922,370 L750.375,370 L750.375,368.344 L752.438,368.344 L752.438,357.125 L750.234,357.125 L750.234,355.469 L757.281,355.469 L757.281,358.047 C757.76,357.036 758.388,356.286 759.164,355.797 C759.94,355.307 760.896,355.063 762.031,355.063 C762.313,355.063 762.656,355.083 763.063,355.125 C763.469,355.167 763.938,355.224 764.469,355.297 M775.391,361.797 C775.391,359.88 775.214,358.536 774.859,357.766 C774.505,356.995 773.901,356.609 773.047,356.609 C772.214,356.609 771.617,356.99 771.258,357.75 C770.898,358.51 770.719,359.776 770.719,361.547 L770.719,361.797 L775.391,361.797 M780.719,363.422 L770.719,363.422 L770.719,363.531 C770.719,365.406 771.003,366.76 771.57,367.594 C772.138,368.427 773.047,368.844 774.297,368.844 C775.349,368.844 776.198,368.568 776.844,368.016 C777.49,367.464 777.906,366.656 778.094,365.594 L780.359,365.594 C779.964,367.25 779.182,368.464 778.016,369.234 C776.849,370.005 775.219,370.391 773.125,370.391 C770.615,370.391 768.688,369.729 767.344,368.406 C766,367.083 765.328,365.188 765.328,362.719 C765.328,360.313 766.016,358.435 767.391,357.086 C768.766,355.737 770.677,355.063 773.125,355.063 C775.531,355.063 777.378,355.773 778.664,357.195 C779.951,358.617 780.635,360.693 780.719,363.422 M797.406,361.078 L797.406,368.344 L799.484,368.344 L799.484,370 L792.563,370 L792.563,368.156 C791.927,368.917 791.219,369.479 790.438,369.844 C789.656,370.208 788.76,370.391 787.75,370.391 C786.271,370.391 785.133,369.992 784.336,369.195 C783.539,368.398 783.141,367.26 783.141,365.781 C783.141,364.146 783.711,362.922 784.852,362.109 C785.992,361.297 787.719,360.891 790.031,360.891 L792.563,360.891 L792.563,360.031 C792.563,358.854 792.286,357.987 791.734,357.43 C791.182,356.872 790.323,356.594 789.156,356.594 C788.188,356.594 787.44,356.792 786.914,357.188 C786.388,357.583 786.016,358.229 785.797,359.125 L784.25,359.125 L784.25,356 C785.115,355.688 786.013,355.453 786.945,355.297 C787.878,355.141 788.859,355.063 789.891,355.063 C792.484,355.063 794.385,355.547 795.594,356.516 C796.802,357.484 797.406,359.005 797.406,361.078 M792.563,365.438 L792.563,362.516 L790.75,362.516 C789.844,362.516 789.151,362.763 788.672,363.258 C788.193,363.753 787.953,364.458 787.953,365.375 C787.953,366.302 788.128,366.992 788.477,367.445 C788.826,367.898 789.359,368.125 790.078,368.125 C790.828,368.125 791.43,367.88 791.883,367.391 C792.336,366.901 792.563,366.25 792.563,365.438 M817.125,357.844 C817.792,356.875 818.518,356.169 819.305,355.727 C820.091,355.284 821.01,355.063 822.063,355.063 C823.729,355.063 824.974,355.536 825.797,356.484 C826.62,357.432 827.031,358.854 827.031,360.75 L827.031,368.344 L829.109,368.344 L829.109,370 L820.453,370 L820.453,368.344 L822.188,368.344 L822.188,361.484 C822.188,359.672 822.049,358.529 821.773,358.055 C821.497,357.581 820.979,357.344 820.219,357.344 C819.365,357.344 818.701,357.674 818.227,358.336 C817.753,358.997 817.516,359.938 817.516,361.156 L817.516,368.344 L819.25,368.344 L819.25,370 L810.938,370 L810.938,368.344 L812.672,368.344 L812.672,361.484 C812.672,359.672 812.531,358.529 812.25,358.055 C811.969,357.581 811.453,357.344 810.703,357.344 C809.839,357.344 809.169,357.674 808.695,358.336 C808.221,358.997 807.984,359.938 807.984,361.156 L807.984,368.344 L809.719,368.344 L809.719,370 L801.078,370 L801.078,368.344 L803.141,368.344 L803.141,357.125 L801.078,357.125 L801.078,355.469 L807.984,355.469 L807.984,357.516 C808.547,356.672 809.193,356.052 809.922,355.656 C810.651,355.26 811.521,355.063 812.531,355.063 C813.708,355.063 814.667,355.289 815.406,355.742 C816.146,356.195 816.719,356.896 817.125,357.844 M831.063,369.578 L831.063,365.516 L832.609,365.516 C832.734,366.599 833.138,367.424 833.82,367.992 C834.503,368.56 835.432,368.844 836.609,368.844 C837.599,368.844 838.354,368.674 838.875,368.336 C839.396,367.997 839.656,367.51 839.656,366.875 C839.656,366.292 839.492,365.839 839.164,365.516 C838.836,365.193 838.193,364.917 837.234,364.688 L835.234,364.172 C833.734,363.797 832.646,363.26 831.969,362.563 C831.292,361.865 830.953,360.927 830.953,359.75 C830.953,358.167 831.5,356.99 832.594,356.219 C833.688,355.448 835.375,355.063 837.656,355.063 C838.51,355.063 839.422,355.135 840.391,355.281 C841.359,355.427 842.432,355.646 843.609,355.938 L843.609,359.609 L842.063,359.609 C841.99,358.62 841.641,357.872 841.016,357.367 C840.391,356.862 839.495,356.609 838.328,356.609 C837.339,356.609 836.591,356.768 836.086,357.086 C835.581,357.404 835.328,357.859 835.328,358.453 C835.328,358.953 835.474,359.344 835.766,359.625 C836.057,359.906 836.583,360.141 837.344,360.328 L839.328,360.844 C841.224,361.323 842.536,361.919 843.266,362.633 C843.995,363.346 844.359,364.333 844.359,365.594 C844.359,367.24 843.776,368.451 842.609,369.227 C841.443,370.003 839.62,370.391 837.141,370.391 C836.245,370.391 835.292,370.323 834.281,370.188 C833.271,370.052 832.198,369.849 831.063,369.578 M862.422,349.594 L865.469,349.594 L858.25,372.594 L855.234,372.594 L862.422,349.594 M868.422,356.609 L868.422,353.328 L885.953,359.656 L885.953,362.75 L868.422,369.094 L868.422,365.828 L881.813,361.234 L868.422,356.609"/>
</g>

<g fill="#00ff73" fill-opacity="1" stroke="#00ff73" stroke-opacity="1" stroke-width="1" stroke-linecap="square" stroke-linejoin="bevel" transform="matrix(1,0,0,1,0,0)"
font-family="DejaVu Sans" font-size="12" font-weight="400" font-style="normal" 
>
<text fill="#00ff73" fill-opacity="1" stroke="none" xml:space="preserve" x="0" y="0" font-family="DejaVu Sans" font-size="12" font-weight="400" font-style="normal" 
 ></text>
</g>

<g fill="#000000" fill-opacity="1" stroke="#000000" stroke-opacity="1" stroke-width="1" stroke-linecap="butt" stroke-linejoin="miter" stroke-miterlimit="2" transform="matrix(1,0,0,1,0,0)"
font-family="DejaVu Sans" font-size="12" font-weight="400" font-style="normal" 
>
</g>

<g fill="#000000" fill-opacity="1" stroke="#000000" stroke-opacity="1" stroke-width="1" stroke-linecap="butt" stroke-linejoin="miter" stroke-miterlimit="2" transform="matrix(1,0,0,1,0,0)"
font-family="DejaVu Sans" font-size="12" font-weight="400" font-style="normal" 
>
</g>

<g fill="#000000" fill-opacity="1" stroke="#000000" stroke-opacity="1" stroke-width="1" stroke-linecap="butt" stroke-linejoin="miter" stroke-miterlimit="2" transform="matrix(1,0,0,1,0,0)"
font-family="DejaVu Sans" font-size="12" font-weight="400" font-style="normal" 
>
</g>
</g>
</svg>
